<svg viewBox="0 0 246 18" fill="none" xmlns="http://www.w3.org/2000/svg">
<circle cx="8" cy="8.80664" r="8" fill="#BC9C22"/>
<circle cx="29" cy="8.80664" r="8" fill="#BC9C22"/>
<circle cx="50" cy="8.80664" r="8" fill="#BC9C22"/>
<path d="M245.863 8.64844C245.863 10.5781 245.504 12.1914 244.785 13.4883C244.066 14.7773 243.023 15.75 241.656 16.4062C240.289 17.0547 238.641 17.3789 236.711 17.3789H231.953V0.246094H237.227C239 0.246094 240.531 0.566406 241.82 1.20703C243.109 1.83984 244.105 2.78125 244.809 4.03125C245.512 5.27344 245.863 6.8125 245.863 8.64844ZM242.934 8.73047C242.934 7.32422 242.711 6.16797 242.266 5.26172C241.828 4.35547 241.18 3.68359 240.32 3.24609C239.469 2.80078 238.418 2.57812 237.168 2.57812H234.766V15.0234H236.758C238.828 15.0234 240.375 14.4961 241.398 13.4414C242.422 12.3867 242.934 10.8164 242.934 8.73047Z" fill="white"/>
<path d="M215.207 0.246094C216.684 0.246094 217.902 0.425781 218.863 0.785156C219.832 1.14453 220.551 1.69141 221.02 2.42578C221.496 3.16016 221.734 4.09375 221.734 5.22656C221.734 6.07031 221.578 6.78906 221.266 7.38281C220.953 7.97656 220.543 8.46875 220.035 8.85938C219.527 9.25 218.984 9.5625 218.406 9.79688L223.27 17.3789H220.094L215.957 10.5117H213.203V17.3789H210.391V0.246094H215.207ZM215.02 2.58984H213.203V8.19141H215.148C216.453 8.19141 217.398 7.94922 217.984 7.46484C218.578 6.98047 218.875 6.26562 218.875 5.32031C218.875 4.32812 218.559 3.625 217.926 3.21094C217.301 2.79688 216.332 2.58984 215.02 2.58984Z" fill="white"/>
<path d="M198.906 17.3789L197.23 12.6211H190.68L189.004 17.3789H186.039L192.414 0.175781H195.531L201.895 17.3789H198.906ZM196.504 10.207L194.875 5.51953C194.812 5.31641 194.723 5.03125 194.605 4.66406C194.488 4.28906 194.371 3.91016 194.254 3.52734C194.137 3.13672 194.039 2.80859 193.961 2.54297C193.883 2.86328 193.785 3.22266 193.668 3.62109C193.559 4.01172 193.449 4.37891 193.34 4.72266C193.238 5.06641 193.16 5.33203 193.105 5.51953L191.465 10.207H196.504Z" fill="white"/>
<path d="M177.672 0.246094V11.332C177.672 12.5273 177.418 13.5977 176.91 14.543C176.41 15.4883 175.652 16.2383 174.637 16.793C173.621 17.3398 172.344 17.6133 170.805 17.6133C168.609 17.6133 166.938 17.0391 165.789 15.8906C164.648 14.7344 164.078 13.1992 164.078 11.2852V0.246094H166.891V11.0391C166.891 12.4688 167.227 13.5234 167.898 14.2031C168.57 14.8828 169.574 15.2227 170.91 15.2227C171.832 15.2227 172.582 15.0625 173.16 14.7422C173.746 14.4141 174.176 13.9375 174.449 13.3125C174.73 12.6797 174.871 11.918 174.871 11.0273V0.246094H177.672Z" fill="white"/>
<path d="M147.484 8.07422H153.883V16.6758C152.984 16.9727 152.055 17.2031 151.094 17.3672C150.133 17.5312 149.055 17.6133 147.859 17.6133C146.117 17.6133 144.641 17.2695 143.43 16.582C142.227 15.8867 141.312 14.8828 140.688 13.5703C140.062 12.25 139.75 10.6602 139.75 8.80078C139.75 7.01172 140.098 5.46094 140.793 4.14844C141.488 2.82812 142.5 1.80859 143.828 1.08984C145.156 0.363281 146.766 0 148.656 0C149.586 0 150.484 0.09375 151.352 0.28125C152.227 0.460938 153.027 0.710938 153.754 1.03125L152.77 3.35156C152.191 3.07812 151.543 2.84766 150.824 2.66016C150.105 2.47266 149.359 2.37891 148.586 2.37891C147.359 2.37891 146.301 2.64453 145.41 3.17578C144.527 3.70703 143.848 4.45703 143.371 5.42578C142.895 6.38672 142.656 7.52344 142.656 8.83594C142.656 10.1094 142.848 11.2266 143.23 12.1875C143.613 13.1484 144.211 13.8984 145.023 14.4375C145.844 14.9688 146.902 15.2344 148.199 15.2344C148.848 15.2344 149.398 15.1992 149.852 15.1289C150.305 15.0586 150.723 14.9805 151.105 14.8945V10.4766H147.484V8.07422Z" fill="white"/>
<path d="M129.836 17.3789H126.379L117.988 3.70312H117.883C117.914 4.16406 117.941 4.65234 117.965 5.16797C117.996 5.68359 118.02 6.21484 118.035 6.76172C118.059 7.30859 118.078 7.86328 118.094 8.42578V17.3789H115.539V0.246094H118.973L127.352 13.8281H127.434C127.418 13.4297 127.398 12.9727 127.375 12.457C127.352 11.9414 127.328 11.4102 127.305 10.8633C127.289 10.3086 127.277 9.77344 127.27 9.25781V0.246094H129.836V17.3789Z" fill="white"/>
<path d="M104.055 17.3789L102.379 12.6211H95.8281L94.1523 17.3789H91.1875L97.5625 0.175781H100.68L107.043 17.3789H104.055ZM101.652 10.207L100.023 5.51953C99.9609 5.31641 99.8711 5.03125 99.7539 4.66406C99.6367 4.28906 99.5195 3.91016 99.4023 3.52734C99.2852 3.13672 99.1875 2.80859 99.1094 2.54297C99.0312 2.86328 98.9336 3.22266 98.8164 3.62109C98.707 4.01172 98.5977 4.37891 98.4883 4.72266C98.3867 5.06641 98.3086 5.33203 98.2539 5.51953L96.6133 10.207H101.652Z" fill="white"/>
<path d="M84.9531 0.246094L78.9648 17.3789H75.9883L70 0.246094H72.8828L76.4922 10.9805C76.6016 11.293 76.7188 11.6719 76.8438 12.1172C76.9766 12.5625 77.0977 13.0117 77.207 13.4648C77.3242 13.918 77.4141 14.3203 77.4766 14.6719C77.5391 14.3203 77.625 13.918 77.7344 13.4648C77.8516 13.0117 77.9727 12.5625 78.0977 12.1172C78.2227 11.6719 78.3398 11.2891 78.4492 10.9688L82.0703 0.246094H84.9531Z" fill="white"/>
</svg>
