<svg width="176" height="66" viewBox="0 0 176 66" fill="none" xmlns="http://www.w3.org/2000/svg">
<path d="M148.169 60.1367C147.221 60.1367 146.469 59.8132 145.913 59.166C145.362 58.5189 145.086 57.5573 145.086 56.2812C145.086 54.9915 145.368 54.0186 145.934 53.3623C146.499 52.7015 147.251 52.3711 148.189 52.3711C148.586 52.3711 148.932 52.4235 149.229 52.5283C149.525 52.6331 149.78 52.7744 149.994 52.9521C150.208 53.1253 150.388 53.3236 150.534 53.5469H150.616C150.598 53.4056 150.58 53.2119 150.562 52.9658C150.543 52.7197 150.534 52.5192 150.534 52.3643V49.3633H151.669V60H150.753L150.582 58.9336H150.534C150.393 59.1569 150.213 59.3597 149.994 59.542C149.78 59.7243 149.522 59.8701 149.222 59.9795C148.925 60.0843 148.575 60.1367 148.169 60.1367ZM148.347 59.1934C149.149 59.1934 149.716 58.9655 150.049 58.5098C150.382 58.054 150.548 57.3773 150.548 56.4795V56.2744C150.548 55.3219 150.388 54.5905 150.069 54.0801C149.755 53.5697 149.181 53.3145 148.347 53.3145C147.649 53.3145 147.128 53.5833 146.781 54.1211C146.435 54.6543 146.262 55.3835 146.262 56.3086C146.262 57.2292 146.433 57.9401 146.774 58.4414C147.121 58.9427 147.645 59.1934 148.347 59.1934Z" fill="white"/>
<path d="M142.933 59.207C143.119 59.207 143.311 59.1911 143.507 59.1592C143.703 59.1273 143.862 59.0885 143.985 59.043V59.9248C143.853 59.984 143.669 60.0342 143.432 60.0752C143.199 60.1162 142.971 60.1367 142.748 60.1367C142.352 60.1367 141.992 60.0684 141.668 59.9316C141.344 59.7904 141.085 59.5534 140.889 59.2207C140.697 58.888 140.602 58.4277 140.602 57.8398V53.3965H139.535V52.8428L140.608 52.3984L141.06 50.7715H141.743V52.5078H143.938V53.3965H141.743V57.8057C141.743 58.2751 141.85 58.626 142.064 58.8584C142.283 59.0908 142.573 59.207 142.933 59.207Z" fill="white"/>
<path d="M133.369 60V50.0059H134.531V58.9609H138.968V60H133.369Z" fill="white"/>
<path d="M121.365 52.5078H122.582L124.236 56.8555C124.332 57.1107 124.421 57.3568 124.503 57.5938C124.585 57.8262 124.658 58.0495 124.722 58.2637C124.785 58.4779 124.836 58.6852 124.872 58.8857H124.92C124.984 58.6579 125.075 58.3594 125.193 57.9902C125.312 57.6165 125.439 57.236 125.576 56.8486L127.142 52.5078H128.365L125.104 61.1006C124.931 61.5609 124.729 61.9619 124.496 62.3037C124.268 62.6455 123.99 62.9076 123.662 63.0898C123.334 63.2767 122.938 63.3701 122.473 63.3701C122.258 63.3701 122.069 63.3564 121.905 63.3291C121.741 63.3063 121.6 63.279 121.481 63.2471V62.3379C121.582 62.3607 121.702 62.3812 121.844 62.3994C121.99 62.4176 122.14 62.4268 122.295 62.4268C122.577 62.4268 122.821 62.3721 123.026 62.2627C123.236 62.1579 123.416 62.0029 123.566 61.7979C123.717 61.5928 123.847 61.349 123.956 61.0664L124.366 60.0137L121.365 52.5078Z" fill="white"/>
<path d="M119.978 59.207C120.164 59.207 120.356 59.1911 120.552 59.1592C120.748 59.1273 120.907 59.0885 121.03 59.043V59.9248C120.898 59.984 120.714 60.0342 120.477 60.0752C120.244 60.1162 120.016 60.1367 119.793 60.1367C119.396 60.1367 119.036 60.0684 118.713 59.9316C118.389 59.7904 118.13 59.5534 117.934 59.2207C117.742 58.888 117.646 58.4277 117.646 57.8398V53.3965H116.58V52.8428L117.653 52.3984L118.104 50.7715H118.788V52.5078H120.982V53.3965H118.788V57.8057C118.788 58.2751 118.895 58.626 119.109 58.8584C119.328 59.0908 119.618 59.207 119.978 59.207Z" fill="white"/>
<path d="M111.918 50.0059C113.208 50.0059 114.149 50.2588 114.741 50.7646C115.338 51.266 115.637 51.986 115.637 52.9248C115.637 53.3486 115.566 53.752 115.425 54.1348C115.288 54.513 115.065 54.848 114.755 55.1396C114.445 55.4268 114.037 55.6546 113.531 55.8232C113.03 55.9873 112.415 56.0693 111.686 56.0693H110.469V60H109.307V50.0059H111.918ZM111.809 50.9971H110.469V55.0713H111.556C112.194 55.0713 112.725 55.0029 113.148 54.8662C113.577 54.7295 113.898 54.5085 114.112 54.2031C114.326 53.8932 114.434 53.4831 114.434 52.9727C114.434 52.3073 114.222 51.8128 113.798 51.4893C113.374 51.1611 112.711 50.9971 111.809 50.9971Z" fill="white"/>
<path d="M99.8594 50.0059C101.149 50.0059 102.09 50.2588 102.683 50.7646C103.28 51.266 103.578 51.986 103.578 52.9248C103.578 53.3486 103.507 53.752 103.366 54.1348C103.229 54.513 103.006 54.848 102.696 55.1396C102.386 55.4268 101.979 55.6546 101.473 55.8232C100.971 55.9873 100.356 56.0693 99.627 56.0693H98.4102V60H97.248V50.0059H99.8594ZM99.75 50.9971H98.4102V55.0713H99.4971C100.135 55.0713 100.666 55.0029 101.09 54.8662C101.518 54.7295 101.84 54.5085 102.054 54.2031C102.268 53.8932 102.375 53.4831 102.375 52.9727C102.375 52.3073 102.163 51.8128 101.739 51.4893C101.315 51.1611 100.652 50.9971 99.75 50.9971Z" fill="white"/>
<path d="M94.5957 50.0059V56.4727C94.5957 57.179 94.4521 57.8079 94.165 58.3594C93.8825 58.9108 93.4541 59.346 92.8799 59.665C92.3057 59.9795 91.5856 60.1367 90.7197 60.1367C89.4847 60.1367 88.5436 59.8018 87.8965 59.1318C87.2539 58.4619 86.9326 57.5664 86.9326 56.4453V50.0059H88.1016V56.4795C88.1016 57.3271 88.3249 57.9811 88.7715 58.4414C89.2227 58.9017 89.8949 59.1318 90.7881 59.1318C91.3988 59.1318 91.8978 59.0225 92.2852 58.8037C92.6771 58.5804 92.9665 58.2705 93.1533 57.874C93.3447 57.473 93.4404 57.0104 93.4404 56.4863V50.0059H94.5957Z" fill="white"/>
<path d="M84.8066 54.9893C84.8066 55.7594 84.7087 56.4613 84.5127 57.0947C84.3167 57.7236 84.0251 58.266 83.6377 58.7217C83.2549 59.1729 82.7786 59.5215 82.209 59.7676C81.6393 60.0137 80.9785 60.1367 80.2266 60.1367C79.4518 60.1367 78.7751 60.0137 78.1963 59.7676C77.6221 59.5215 77.1436 59.1706 76.7607 58.7148C76.3825 58.2591 76.0977 57.7145 75.9062 57.0811C75.7194 56.4476 75.626 55.7458 75.626 54.9756C75.626 53.9548 75.7946 53.0592 76.1318 52.2891C76.4691 51.5189 76.9795 50.9196 77.6631 50.4912C78.3512 50.0628 79.2126 49.8486 80.2471 49.8486C81.236 49.8486 82.0677 50.0605 82.7422 50.4844C83.4212 50.9082 83.9339 51.5052 84.2803 52.2754C84.6312 53.041 84.8066 53.9456 84.8066 54.9893ZM76.8496 54.9893C76.8496 55.8369 76.9704 56.5706 77.2119 57.1904C77.4535 57.8102 77.8226 58.2887 78.3193 58.626C78.8206 58.9632 79.4564 59.1318 80.2266 59.1318C81.0013 59.1318 81.6348 58.9632 82.127 58.626C82.6237 58.2887 82.9906 57.8102 83.2275 57.1904C83.4645 56.5706 83.583 55.8369 83.583 54.9893C83.583 53.6995 83.3118 52.6924 82.7695 51.9678C82.2318 51.2386 81.391 50.874 80.2471 50.874C79.4723 50.874 78.8343 51.0404 78.333 51.373C77.8317 51.7057 77.458 52.1797 77.2119 52.7949C76.9704 53.4056 76.8496 54.137 76.8496 54.9893Z" fill="white"/>
<path d="M70.1982 50.0059C71.0186 50.0059 71.6953 50.1084 72.2285 50.3135C72.7663 50.514 73.1673 50.8216 73.4316 51.2363C73.696 51.651 73.8281 52.1797 73.8281 52.8223C73.8281 53.3509 73.7324 53.793 73.541 54.1484C73.3496 54.4993 73.099 54.7842 72.7891 55.0029C72.4792 55.2217 72.1488 55.3903 71.7979 55.5088L74.5391 60H73.1855L70.7383 55.8301H68.6602V60H67.498V50.0059H70.1982ZM70.1299 51.0107H68.6602V54.8457H70.2461C71.0618 54.8457 71.6611 54.6794 72.0439 54.3467C72.4313 54.014 72.625 53.5241 72.625 52.877C72.625 52.1979 72.4199 51.7171 72.0098 51.4346C71.6042 51.152 70.9775 51.0107 70.1299 51.0107Z" fill="white"/>
<path d="M61.585 54.7637H65.0781V59.6104C64.554 59.7881 64.014 59.9202 63.458 60.0068C62.9066 60.0934 62.2891 60.1367 61.6055 60.1367C60.5664 60.1367 59.6891 59.9294 58.9736 59.5146C58.2627 59.0999 57.7227 58.5098 57.3535 57.7441C56.9844 56.974 56.7998 56.0602 56.7998 55.0029C56.7998 53.9684 57.0026 53.0661 57.4082 52.2959C57.8184 51.5257 58.4085 50.9287 59.1787 50.5049C59.9535 50.0765 60.8831 49.8623 61.9678 49.8623C62.5238 49.8623 63.0501 49.9147 63.5469 50.0195C64.0482 50.1198 64.513 50.2633 64.9414 50.4502L64.4971 51.4619C64.1279 51.3024 63.7201 51.1657 63.2734 51.0518C62.8314 50.9378 62.3734 50.8809 61.8994 50.8809C61.0837 50.8809 60.3841 51.0495 59.8008 51.3867C59.222 51.724 58.7777 52.2002 58.4678 52.8154C58.1624 53.4307 58.0098 54.1598 58.0098 55.0029C58.0098 55.8369 58.1442 56.5638 58.4131 57.1836C58.682 57.7988 59.1012 58.2773 59.6709 58.6191C60.2406 58.9609 60.9743 59.1318 61.8721 59.1318C62.3232 59.1318 62.7106 59.1068 63.0342 59.0566C63.3577 59.002 63.6517 58.9382 63.916 58.8652V55.8027H61.585V54.7637Z" fill="white"/>
<path d="M50.9277 60H49.7656V55.29H44.5156V60H43.3535V50.0059H44.5156V54.2646H49.7656V50.0059H50.9277V60Z" fill="white"/>
<path d="M38.7119 60H37.543V51.0312H34.3984V50.0059H41.8428V51.0312H38.7119V60Z" fill="white"/>
<path d="M28.3281 60V50.0059H29.4902V58.9609H33.9268V60H28.3281Z" fill="white"/>
<path d="M25.7373 60L24.5068 56.8281H20.501L19.2773 60H18.1016L22.0117 49.9648H23.0576L26.9404 60H25.7373ZM24.1582 55.7959L22.9893 52.6445C22.9619 52.5625 22.9163 52.4281 22.8525 52.2412C22.7933 52.0544 22.7318 51.8607 22.668 51.6602C22.6042 51.4596 22.5518 51.2979 22.5107 51.1748C22.4652 51.3617 22.415 51.5485 22.3604 51.7354C22.3102 51.9176 22.2601 52.0885 22.21 52.248C22.1598 52.403 22.1165 52.5352 22.0801 52.6445L20.8906 55.7959H24.1582Z" fill="white"/>
<path d="M17.2539 60H11.6895V50.0059H17.2539V51.0312H12.8516V54.2646H17.001V55.2764H12.8516V58.9746H17.2539V60Z" fill="white"/>
<path d="M8.94141 60H7.7793V55.29H2.5293V60H1.36719V50.0059H2.5293V54.2646H7.7793V50.0059H8.94141V60Z" fill="white"/>
<path d="M175.863 29.6484C175.863 31.5781 175.504 33.1914 174.785 34.4883C174.066 35.7773 173.023 36.75 171.656 37.4062C170.289 38.0547 168.641 38.3789 166.711 38.3789H161.953V21.2461H167.227C169 21.2461 170.531 21.5664 171.82 22.207C173.109 22.8398 174.105 23.7812 174.809 25.0312C175.512 26.2734 175.863 27.8125 175.863 29.6484ZM172.934 29.7305C172.934 28.3242 172.711 27.168 172.266 26.2617C171.828 25.3555 171.18 24.6836 170.32 24.2461C169.469 23.8008 168.418 23.5781 167.168 23.5781H164.766V36.0234H166.758C168.828 36.0234 170.375 35.4961 171.398 34.4414C172.422 33.3867 172.934 31.8164 172.934 29.7305Z" fill="white"/>
<path d="M145.207 21.2461C146.684 21.2461 147.902 21.4258 148.863 21.7852C149.832 22.1445 150.551 22.6914 151.02 23.4258C151.496 24.1602 151.734 25.0938 151.734 26.2266C151.734 27.0703 151.578 27.7891 151.266 28.3828C150.953 28.9766 150.543 29.4688 150.035 29.8594C149.527 30.25 148.984 30.5625 148.406 30.7969L153.27 38.3789H150.094L145.957 31.5117H143.203V38.3789H140.391V21.2461H145.207ZM145.02 23.5898H143.203V29.1914H145.148C146.453 29.1914 147.398 28.9492 147.984 28.4648C148.578 27.9805 148.875 27.2656 148.875 26.3203C148.875 25.3281 148.559 24.625 147.926 24.2109C147.301 23.7969 146.332 23.5898 145.02 23.5898Z" fill="white"/>
<path d="M128.906 38.3789L127.23 33.6211H120.68L119.004 38.3789H116.039L122.414 21.1758H125.531L131.895 38.3789H128.906ZM126.504 31.207L124.875 26.5195C124.812 26.3164 124.723 26.0312 124.605 25.6641C124.488 25.2891 124.371 24.9102 124.254 24.5273C124.137 24.1367 124.039 23.8086 123.961 23.543C123.883 23.8633 123.785 24.2227 123.668 24.6211C123.559 25.0117 123.449 25.3789 123.34 25.7227C123.238 26.0664 123.16 26.332 123.105 26.5195L121.465 31.207H126.504Z" fill="white"/>
<path d="M107.672 21.2461V32.332C107.672 33.5273 107.418 34.5977 106.91 35.543C106.41 36.4883 105.652 37.2383 104.637 37.793C103.621 38.3398 102.344 38.6133 100.805 38.6133C98.6094 38.6133 96.9375 38.0391 95.7891 36.8906C94.6484 35.7344 94.0781 34.1992 94.0781 32.2852V21.2461H96.8906V32.0391C96.8906 33.4688 97.2266 34.5234 97.8984 35.2031C98.5703 35.8828 99.5742 36.2227 100.91 36.2227C101.832 36.2227 102.582 36.0625 103.16 35.7422C103.746 35.4141 104.176 34.9375 104.449 34.3125C104.73 33.6797 104.871 32.918 104.871 32.0273V21.2461H107.672Z" fill="white"/>
<path d="M77.4844 29.0742H83.8828V37.6758C82.9844 37.9727 82.0547 38.2031 81.0938 38.3672C80.1328 38.5312 79.0547 38.6133 77.8594 38.6133C76.1172 38.6133 74.6406 38.2695 73.4297 37.582C72.2266 36.8867 71.3125 35.8828 70.6875 34.5703C70.0625 33.25 69.75 31.6602 69.75 29.8008C69.75 28.0117 70.0977 26.4609 70.793 25.1484C71.4883 23.8281 72.5 22.8086 73.8281 22.0898C75.1562 21.3633 76.7656 21 78.6562 21C79.5859 21 80.4844 21.0938 81.3516 21.2812C82.2266 21.4609 83.0273 21.7109 83.7539 22.0312L82.7695 24.3516C82.1914 24.0781 81.543 23.8477 80.8242 23.6602C80.1055 23.4727 79.3594 23.3789 78.5859 23.3789C77.3594 23.3789 76.3008 23.6445 75.4102 24.1758C74.5273 24.707 73.8477 25.457 73.3711 26.4258C72.8945 27.3867 72.6562 28.5234 72.6562 29.8359C72.6562 31.1094 72.8477 32.2266 73.2305 33.1875C73.6133 34.1484 74.2109 34.8984 75.0234 35.4375C75.8438 35.9688 76.9023 36.2344 78.1992 36.2344C78.8477 36.2344 79.3984 36.1992 79.8516 36.1289C80.3047 36.0586 80.7227 35.9805 81.1055 35.8945V31.4766H77.4844V29.0742Z" fill="white"/>
<path d="M59.8359 38.3789H56.3789L47.9883 24.7031H47.8828C47.9141 25.1641 47.9414 25.6523 47.9648 26.168C47.9961 26.6836 48.0195 27.2148 48.0352 27.7617C48.0586 28.3086 48.0781 28.8633 48.0938 29.4258V38.3789H45.5391V21.2461H48.9727L57.3516 34.8281H57.4336C57.418 34.4297 57.3984 33.9727 57.375 33.457C57.3516 32.9414 57.3281 32.4102 57.3047 31.8633C57.2891 31.3086 57.2773 30.7734 57.2695 30.2578V21.2461H59.8359V38.3789Z" fill="white"/>
<path d="M34.0547 38.3789L32.3789 33.6211H25.8281L24.1523 38.3789H21.1875L27.5625 21.1758H30.6797L37.043 38.3789H34.0547ZM31.6523 31.207L30.0234 26.5195C29.9609 26.3164 29.8711 26.0312 29.7539 25.6641C29.6367 25.2891 29.5195 24.9102 29.4023 24.5273C29.2852 24.1367 29.1875 23.8086 29.1094 23.543C29.0312 23.8633 28.9336 24.2227 28.8164 24.6211C28.707 25.0117 28.5977 25.3789 28.4883 25.7227C28.3867 26.0664 28.3086 26.332 28.2539 26.5195L26.6133 31.207H31.6523Z" fill="white"/>
<path d="M14.9531 21.2461L8.96484 38.3789H5.98828L0 21.2461H2.88281L6.49219 31.9805C6.60156 32.293 6.71875 32.6719 6.84375 33.1172C6.97656 33.5625 7.09766 34.0117 7.20703 34.4648C7.32422 34.918 7.41406 35.3203 7.47656 35.6719C7.53906 35.3203 7.625 34.918 7.73438 34.4648C7.85156 34.0117 7.97266 33.5625 8.09766 33.1172C8.22266 32.6719 8.33984 32.2891 8.44922 31.9688L12.0703 21.2461H14.9531Z" fill="white"/>
<circle cx="8" cy="8" r="8" fill="#BC9C22"/>
<circle cx="29" cy="8" r="8" fill="#BC9C22"/>
<circle cx="50" cy="8" r="8" fill="#BC9C22"/>
</svg>
