<svg width="176" height="39" viewBox="0 0 176 39" fill="none" xmlns="http://www.w3.org/2000/svg">
<path d="M175.863 29.6484C175.863 31.5781 175.504 33.1914 174.785 34.4883C174.066 35.7773 173.023 36.75 171.656 37.4062C170.289 38.0547 168.641 38.3789 166.711 38.3789H161.953V21.2461H167.227C169 21.2461 170.531 21.5664 171.82 22.207C173.109 22.8398 174.105 23.7812 174.809 25.0312C175.512 26.2734 175.863 27.8125 175.863 29.6484ZM172.934 29.7305C172.934 28.3242 172.711 27.168 172.266 26.2617C171.828 25.3555 171.18 24.6836 170.32 24.2461C169.469 23.8008 168.418 23.5781 167.168 23.5781H164.766V36.0234H166.758C168.828 36.0234 170.375 35.4961 171.398 34.4414C172.422 33.3867 172.934 31.8164 172.934 29.7305Z" fill="white"/>
<path d="M145.207 21.2461C146.684 21.2461 147.902 21.4258 148.863 21.7852C149.832 22.1445 150.551 22.6914 151.02 23.4258C151.496 24.1602 151.734 25.0938 151.734 26.2266C151.734 27.0703 151.578 27.7891 151.266 28.3828C150.953 28.9766 150.543 29.4688 150.035 29.8594C149.527 30.25 148.984 30.5625 148.406 30.7969L153.27 38.3789H150.094L145.957 31.5117H143.203V38.3789H140.391V21.2461H145.207ZM145.02 23.5898H143.203V29.1914H145.148C146.453 29.1914 147.398 28.9492 147.984 28.4648C148.578 27.9805 148.875 27.2656 148.875 26.3203C148.875 25.3281 148.559 24.625 147.926 24.2109C147.301 23.7969 146.332 23.5898 145.02 23.5898Z" fill="white"/>
<path d="M128.906 38.3789L127.23 33.6211H120.68L119.004 38.3789H116.039L122.414 21.1758H125.531L131.895 38.3789H128.906ZM126.504 31.207L124.875 26.5195C124.812 26.3164 124.723 26.0312 124.605 25.6641C124.488 25.2891 124.371 24.9102 124.254 24.5273C124.137 24.1367 124.039 23.8086 123.961 23.543C123.883 23.8633 123.785 24.2227 123.668 24.6211C123.559 25.0117 123.449 25.3789 123.34 25.7227C123.238 26.0664 123.16 26.332 123.105 26.5195L121.465 31.207H126.504Z" fill="white"/>
<path d="M107.672 21.2461V32.332C107.672 33.5273 107.418 34.5977 106.91 35.543C106.41 36.4883 105.652 37.2383 104.637 37.793C103.621 38.3398 102.344 38.6133 100.805 38.6133C98.6094 38.6133 96.9375 38.0391 95.7891 36.8906C94.6484 35.7344 94.0781 34.1992 94.0781 32.2852V21.2461H96.8906V32.0391C96.8906 33.4688 97.2266 34.5234 97.8984 35.2031C98.5703 35.8828 99.5742 36.2227 100.91 36.2227C101.832 36.2227 102.582 36.0625 103.16 35.7422C103.746 35.4141 104.176 34.9375 104.449 34.3125C104.73 33.6797 104.871 32.918 104.871 32.0273V21.2461H107.672Z" fill="white"/>
<path d="M77.4844 29.0742H83.8828V37.6758C82.9844 37.9727 82.0547 38.2031 81.0938 38.3672C80.1328 38.5312 79.0547 38.6133 77.8594 38.6133C76.1172 38.6133 74.6406 38.2695 73.4297 37.582C72.2266 36.8867 71.3125 35.8828 70.6875 34.5703C70.0625 33.25 69.75 31.6602 69.75 29.8008C69.75 28.0117 70.0977 26.4609 70.793 25.1484C71.4883 23.8281 72.5 22.8086 73.8281 22.0898C75.1562 21.3633 76.7656 21 78.6562 21C79.5859 21 80.4844 21.0938 81.3516 21.2812C82.2266 21.4609 83.0273 21.7109 83.7539 22.0312L82.7695 24.3516C82.1914 24.0781 81.543 23.8477 80.8242 23.6602C80.1055 23.4727 79.3594 23.3789 78.5859 23.3789C77.3594 23.3789 76.3008 23.6445 75.4102 24.1758C74.5273 24.707 73.8477 25.457 73.3711 26.4258C72.8945 27.3867 72.6562 28.5234 72.6562 29.8359C72.6562 31.1094 72.8477 32.2266 73.2305 33.1875C73.6133 34.1484 74.2109 34.8984 75.0234 35.4375C75.8438 35.9688 76.9023 36.2344 78.1992 36.2344C78.8477 36.2344 79.3984 36.1992 79.8516 36.1289C80.3047 36.0586 80.7227 35.9805 81.1055 35.8945V31.4766H77.4844V29.0742Z" fill="white"/>
<path d="M59.8359 38.3789H56.3789L47.9883 24.7031H47.8828C47.9141 25.1641 47.9414 25.6523 47.9648 26.168C47.9961 26.6836 48.0195 27.2148 48.0352 27.7617C48.0586 28.3086 48.0781 28.8633 48.0938 29.4258V38.3789H45.5391V21.2461H48.9727L57.3516 34.8281H57.4336C57.418 34.4297 57.3984 33.9727 57.375 33.457C57.3516 32.9414 57.3281 32.4102 57.3047 31.8633C57.2891 31.3086 57.2773 30.7734 57.2695 30.2578V21.2461H59.8359V38.3789Z" fill="white"/>
<path d="M34.0547 38.3789L32.3789 33.6211H25.8281L24.1523 38.3789H21.1875L27.5625 21.1758H30.6797L37.043 38.3789H34.0547ZM31.6523 31.207L30.0234 26.5195C29.9609 26.3164 29.8711 26.0312 29.7539 25.6641C29.6367 25.2891 29.5195 24.9102 29.4023 24.5273C29.2852 24.1367 29.1875 23.8086 29.1094 23.543C29.0312 23.8633 28.9336 24.2227 28.8164 24.6211C28.707 25.0117 28.5977 25.3789 28.4883 25.7227C28.3867 26.0664 28.3086 26.332 28.2539 26.5195L26.6133 31.207H31.6523Z" fill="white"/>
<path d="M14.9531 21.2461L8.96484 38.3789H5.98828L0 21.2461H2.88281L6.49219 31.9805C6.60156 32.293 6.71875 32.6719 6.84375 33.1172C6.97656 33.5625 7.09766 34.0117 7.20703 34.4648C7.32422 34.918 7.41406 35.3203 7.47656 35.6719C7.53906 35.3203 7.625 34.918 7.73438 34.4648C7.85156 34.0117 7.97266 33.5625 8.09766 33.1172C8.22266 32.6719 8.33984 32.2891 8.44922 31.9688L12.0703 21.2461H14.9531Z" fill="white"/>
<circle cx="8" cy="8" r="8" fill="#BC9C22"/>
<circle cx="29" cy="8" r="8" fill="#BC9C22"/>
<circle cx="50" cy="8" r="8" fill="#BC9C22"/>
</svg>
