<svg width="24" height="24" viewBox="0 0 24 24" fill="none" xmlns="http://www.w3.org/2000/svg">
<path fill-rule="evenodd" clip-rule="evenodd" d="M16 15.027C16 14.6292 16.158 14.2477 16.4393 13.9663C16.7206 13.685 17.1022 13.527 17.5 13.527C17.8978 13.527 18.2794 13.685 18.5607 13.9663C18.842 14.2477 19 14.6292 19 15.027V21.5C19 21.6326 18.9473 21.7598 18.8536 21.8536C18.7598 21.9473 18.6326 22 18.5 22C18.3674 22 18.2402 21.9473 18.1464 21.8536C18.0527 21.7598 18 21.6326 18 21.5V15.027C18 14.8944 17.9473 14.7672 17.8536 14.6735C17.7598 14.5797 17.6326 14.527 17.5 14.527C17.3674 14.527 17.2402 14.5797 17.1464 14.6735C17.0527 14.7672 17 14.8944 17 15.027V15.1985C17 15.3311 16.9473 15.4583 16.8536 15.5521C16.7598 15.6458 16.6326 15.6985 16.5 15.6985C16.3674 15.6985 16.2402 15.6458 16.1464 15.5521C16.0527 15.4583 16 15.3311 16 15.1985V15.027Z" fill="black"/>
<path fill-rule="evenodd" clip-rule="evenodd" d="M9.12747 8.5C8.13947 8.5 7.35047 8.83 6.80847 9.3585C6.55587 9.60413 6.35438 9.89733 6.21562 10.2212C6.07686 10.5451 6.00357 10.8932 5.99997 11.2455C5.99509 11.5979 6.06189 11.9476 6.19632 12.2733C6.33075 12.5991 6.53001 12.8941 6.78197 13.1405C7.30347 13.652 8.06047 13.9745 9.01247 13.9985L9.49997 14.011V20.6335C9.49997 20.767 9.64297 20.9865 9.97447 20.9995C10.3075 21.0125 10.4835 20.801 10.4985 20.6595L10.9875 16H13.0125L13.5015 20.66C13.5165 20.801 13.6925 21.0125 14.0255 20.9995C14.357 20.9865 14.5 20.767 14.5 20.6335V9.624L15.207 9.9455C15.7585 10.196 16.117 10.5155 16.354 10.803C16.614 11.1195 16.861 11.5525 16.9255 12.0285L16.9265 12.0385L16.9275 12.0465C16.9535 12.3025 17.1975 12.5235 17.5105 12.498C17.8105 12.474 18.024 12.215 18.002 11.9585C17.9799 11.7628 17.9356 11.5702 17.87 11.3845C17.7255 10.9514 17.502 10.5488 17.211 10.197C16.482 9.311 15.1475 8.5 12.788 8.5H9.12747ZM6.11047 8.6425C6.86047 7.9115 7.91047 7.5 9.12747 7.5H12.7875C15.4 7.5 17.0365 8.411 17.9835 9.5615C18.3527 10.0083 18.6362 10.5196 18.8195 11.0695C18.8995 11.3115 18.9715 11.5815 18.9975 11.8685V11.8705C19.074 12.734 18.389 13.4305 17.5905 13.495C16.7725 13.5605 16.0225 12.9825 15.9335 12.157C15.9005 11.925 15.7665 11.6635 15.5815 11.4385C15.5553 11.4068 15.5281 11.376 15.5 11.346V20.6335C15.5 21.426 14.802 21.9695 14.065 21.9985C13.33 22.0275 12.589 21.5455 12.507 20.7635L12.112 17H11.888L11.493 20.764C11.411 21.5455 10.67 22.0275 9.93497 21.999C9.19797 21.97 8.49997 21.426 8.49997 20.6335V14.9635C7.53747 14.8485 6.70497 14.466 6.08147 13.8535C5.7336 13.513 5.4584 13.1055 5.27251 12.6556C5.08663 12.2057 4.99391 11.7227 4.99997 11.236C5.00484 10.7519 5.10542 10.2736 5.29592 9.82861C5.48642 9.38358 5.76309 8.98065 6.10997 8.643M9.49997 9.4785V13.02L8.97797 12.997C8.31497 12.967 7.85947 12.742 7.56547 12.4535C7.40769 12.2968 7.28321 12.1098 7.19952 11.9037C7.11583 11.6977 7.07466 11.4769 7.07847 11.2545C7.07954 11.0295 7.12525 10.807 7.21297 10.5998C7.30069 10.3926 7.42866 10.2049 7.58947 10.0475C7.88797 9.757 8.33897 9.534 8.97597 9.5035L9.49997 9.4785ZM8.49997 10.619C8.37463 10.6741 8.26803 10.7644 8.19318 10.879C8.11833 10.9937 8.07847 11.1276 8.07847 11.2645C8.07647 11.4565 8.14697 11.6235 8.26597 11.7395C8.31297 11.786 8.38697 11.843 8.49997 11.8915V10.619ZM12 3C11.6021 3 11.2206 3.15804 10.9393 3.43934C10.658 3.72064 10.5 4.10218 10.5 4.5C10.5 4.89782 10.658 5.27936 10.9393 5.56066C11.2206 5.84196 11.6021 6 12 6C12.3978 6 12.7793 5.84196 13.0606 5.56066C13.3419 5.27936 13.5 4.89782 13.5 4.5C13.5 4.10218 13.3419 3.72064 13.0606 3.43934C12.7793 3.15804 12.3978 3 12 3ZM9.49997 4.5C9.49997 3.83696 9.76337 3.20107 10.2322 2.73223C10.701 2.26339 11.3369 2 12 2C12.663 2 13.2989 2.26339 13.7677 2.73223C14.2366 3.20107 14.5 3.83696 14.5 4.5C14.5 5.16304 14.2366 5.79893 13.7677 6.26777C13.2989 6.73661 12.663 7 12 7C11.3369 7 10.701 6.73661 10.2322 6.26777C9.76337 5.79893 9.49997 5.16304 9.49997 4.5Z" fill="black"/>
</svg>
