<svg width="24" height="24" viewBox="0 0 24 24" fill="none" xmlns="http://www.w3.org/2000/svg">
<path d="M12 5.57401L11.452 6.08601C11.5222 6.1611 11.607 6.22097 11.7013 6.26191C11.7956 6.30284 11.8972 6.32396 12 6.32396C12.1028 6.32396 12.2044 6.30284 12.2987 6.26191C12.393 6.22097 12.4778 6.1611 12.548 6.08601L12 5.57401ZM9.434 18.796C7.984 17.62 6.292 16.077 4.968 14.388C3.629 12.681 2.75 10.928 2.75 9.31801H1.25C1.25 11.435 2.38 13.52 3.787 15.314C5.209 17.127 6.997 18.75 8.489 19.961L9.434 18.796ZM2.75 9.31801C2.75 6.41301 4.018 4.61801 5.586 4.00301C7.151 3.39001 9.34 3.82801 11.452 6.08601L12.548 5.06201C10.16 2.50801 7.349 1.70201 5.039 2.60601C2.732 3.51001 1.25 5.99201 1.25 9.31801H2.75ZM15.51 19.96C17.003 18.749 18.791 17.126 20.213 15.313C21.62 13.519 22.75 11.434 22.75 9.31601H21.25C21.25 10.928 20.37 12.68 19.032 14.387C17.708 16.076 16.016 17.619 14.566 18.795L15.51 19.96ZM22.75 9.31601C22.75 5.99101 21.268 3.50901 18.96 2.60601C16.65 1.70101 13.84 2.50601 11.452 5.06101L12.548 6.08601C14.66 3.82801 16.849 3.38901 18.414 4.00201C19.982 4.61601 21.25 6.41201 21.25 9.31601H22.75ZM8.489 19.961C9.759 20.993 10.642 21.75 12 21.75V20.25C11.277 20.25 10.827 19.926 9.434 18.796L8.489 19.961ZM14.566 18.795C13.173 19.925 12.723 20.25 12 20.25V21.75C13.358 21.75 14.241 20.993 15.511 19.961L14.566 18.795Z" fill="black"/>
<path d="M18.5 9H16.5M16.5 9H14.5M16.5 9V7M16.5 9V11" stroke="black" stroke-width="1.5" stroke-linecap="round"/>
</svg>
