<svg width="24" height="24" viewBox="0 0 24 24" fill="none" xmlns="http://www.w3.org/2000/svg">
<path d="M12 13C13.3261 13 14.5979 12.4732 15.5355 11.5355C16.4732 10.5979 17 9.32608 17 8C17 6.67392 16.4732 5.40215 15.5355 4.46447C14.5979 3.52678 13.3261 3 12 3M12 13C10.6739 13 9.40215 12.4732 8.46447 11.5355C7.52678 10.5979 7 9.32608 7 8C7 6.67392 7.52678 5.40215 8.46447 4.46447C9.40215 3.52678 10.6739 3 12 3M12 13C13.105 13 14 10.761 14 8C14 5.239 13.105 3 12 3M12 13C10.895 13 10 10.761 10 8C10 5.239 10.895 3 12 3M7.46 8H16.577" stroke="black" stroke-width="1.5" stroke-linecap="round" stroke-linejoin="round"/>
<path d="M12 15.25V21M12 21C13.8437 19.3826 16.2144 18.4936 18.667 18.5C20.229 18.5 21.01 18.5 21.355 18.28C21.562 18.147 21.646 18.062 21.779 17.855C22 17.51 22 16.895 22 15.663V6.40301C22 4.97501 22 4.26201 21.451 3.68301C20.902 3.10401 20.341 3.07401 19.217 3.01501C18.5875 2.98147 17.9562 3.00523 17.331 3.08601M12 21C10.169 19.387 7.793 18.497 5.333 18.5C3.771 18.5 2.99 18.5 2.645 18.279C2.438 18.147 2.353 18.062 2.22 17.855C2 17.51 2 16.894 2 15.663V6.40301C2 4.97501 2 4.26201 2.549 3.68301C3.097 3.10501 3.659 3.07501 4.783 3.01501C5.4125 2.97917 6.04398 3.00294 6.669 3.08601" stroke="black" stroke-width="1.5" stroke-linecap="round" stroke-linejoin="round"/>
</svg>
