<svg width="24" height="24" viewBox="0 0 24 24" fill="none" xmlns="http://www.w3.org/2000/svg">
<path d="M18.41 9.16C18.4105 10.1256 18.1925 11.0787 17.7724 11.9481C17.3522 12.8174 16.7408 13.5804 15.984 14.18C14.8521 15.0818 13.4472 15.5719 12 15.57C10.494 15.57 9.10997 15.05 8.01597 14.182C7.16581 13.5075 6.50082 12.6282 6.08331 11.6265C5.66581 10.6248 5.50946 9.53349 5.62892 8.45485C5.74838 7.37622 6.13974 6.34558 6.76632 5.45951C7.3929 4.57344 8.23418 3.86096 9.21133 3.38884C10.1885 2.91672 11.2695 2.70041 12.3531 2.76019C13.4367 2.81997 14.4873 3.15389 15.4066 3.73064C16.3259 4.30739 17.0837 5.10809 17.609 6.05771C18.1343 7.00733 18.4099 8.07477 18.41 9.16Z" stroke="black" stroke-width="1.5" stroke-linecap="round" stroke-linejoin="round"/>
<path d="M15.984 14.18V21.25L12 18.267L8.01599 21.25V14.18" stroke="black" stroke-width="1.5" stroke-linecap="round" stroke-linejoin="round"/>
<path d="M11.455 6.74C11.634 6.433 11.723 6.279 11.84 6.227C11.8904 6.20497 11.9449 6.1936 12 6.1936C12.055 6.1936 12.1095 6.20497 12.16 6.227C12.277 6.279 12.366 6.433 12.545 6.74L13.033 7.578C13.0645 7.63763 13.102 7.69392 13.145 7.746C13.175 7.77733 13.2103 7.80266 13.251 7.822C13.3136 7.84682 13.3786 7.86525 13.445 7.877L14.392 8.082C14.74 8.157 14.914 8.195 14.999 8.29C15.074 8.373 15.109 8.483 15.099 8.594C15.085 8.721 14.966 8.854 14.729 9.119L14.083 9.842C14.036 9.89064 13.9941 9.94391 13.958 10.001C13.938 10.0396 13.9245 10.0811 13.918 10.124C13.9138 10.1914 13.9165 10.2591 13.926 10.326L14.024 11.29C14.06 11.645 14.078 11.822 14.014 11.932C13.9859 11.9796 13.9484 12.0209 13.9036 12.0532C13.8589 12.0856 13.8079 12.1083 13.754 12.12C13.63 12.147 13.467 12.075 13.142 11.932L12.255 11.541C12.1941 11.5113 12.1305 11.4878 12.0649 11.471C12.0219 11.4639 11.978 11.4639 11.935 11.471C11.8694 11.4878 11.8058 11.5113 11.745 11.541L10.859 11.931C10.533 12.075 10.369 12.147 10.245 12.121C10.1911 12.1091 10.1403 12.0861 10.0957 12.0536C10.0511 12.0211 10.0138 11.9797 9.98595 11.932C9.92195 11.822 9.93995 11.645 9.97595 11.29L10.074 10.326C10.084 10.224 10.089 10.173 10.082 10.124C10.0754 10.0811 10.0619 10.0396 10.042 10.001C10.0058 9.94391 9.96388 9.89064 9.91695 9.842L9.26995 9.12C9.03195 8.855 8.91395 8.722 8.89995 8.595C8.89479 8.54017 8.90102 8.48487 8.91822 8.43256C8.93543 8.38025 8.96325 8.33206 8.99995 8.291C9.08495 8.196 9.25895 8.158 9.60695 8.083L10.554 7.878C10.654 7.856 10.704 7.845 10.748 7.823C10.7872 7.80363 10.823 7.77796 10.854 7.747C10.8969 7.69492 10.9344 7.63863 10.966 7.579L11.455 6.74Z" fill="black"/>
</svg>
