<svg width="24" height="24" viewBox="0 0 24 24" fill="none" xmlns="http://www.w3.org/2000/svg">
<path d="M18.665 17.529C18.3114 17.529 17.9723 17.6636 17.7222 17.9031C17.4722 18.1427 17.3318 18.4676 17.3318 18.8064C17.3318 18.855 17.3411 18.9016 17.3471 18.9489C15.8243 20.1014 13.9395 20.7265 11.999 20.7226C7.2208 20.7226 3.3332 16.9982 3.3332 12.4193C3.3332 11.0684 3.66116 9.77946 4.30776 8.58953L3.12522 8C2.38655 9.36562 2.00067 10.8811 2 12.4193C2 17.7021 6.48554 22 11.999 22C14.2481 22 16.3865 21.2846 18.135 19.9778C18.3168 20.0536 18.5139 20.0895 18.7119 20.0831C18.91 20.0767 19.1041 20.028 19.2801 19.9407C19.4561 19.8533 19.6095 19.7294 19.7293 19.5781C19.849 19.4268 19.932 19.2517 19.9722 19.0658C20.0125 18.8798 20.0089 18.6876 19.9619 18.5031C19.9148 18.3187 19.8254 18.1466 19.7002 17.9994C19.575 17.8521 19.4171 17.7335 19.238 17.6522C19.0589 17.5708 18.8632 17.5287 18.665 17.529Z" fill="black"/>
<path d="M9 16.75V18H8V16.75H9ZM9 8V9.25H8V8H9ZM9 12.375V13.625H8V12.375H9Z" fill="black"/>
<path d="M12 2C9.75067 2 7.612 2.74667 5.86333 4.11067C5.59998 3.99658 5.30685 3.97052 5.02751 4.03635C4.74816 4.10218 4.49751 4.25639 4.31281 4.47606C4.12811 4.69572 4.01921 4.96912 4.00231 5.25562C3.98541 5.54212 4.06141 5.82643 4.219 6.06629C4.3766 6.30615 4.60738 6.48875 4.87705 6.58697C5.14672 6.68518 5.44089 6.69376 5.71582 6.61143C5.99076 6.5291 6.23179 6.36026 6.4031 6.12999C6.5744 5.89973 6.66684 5.62033 6.66667 5.33333C6.66667 5.28267 6.65733 5.234 6.65133 5.18467C8.17426 3.98173 10.0593 3.32927 12 3.33333C13.1027 3.33333 14 4.23067 14 5.33333C14 6.436 13.1027 7.33333 12 7.33333H11.3333V8.66667H12C13.838 8.66667 15.3333 7.17133 15.3333 5.33333C15.3324 5.17333 15.3207 5.01644 15.298 4.86267C15.9663 5.64406 16.3335 6.63848 16.3333 7.66667C16.3333 10.056 14.3893 12 12 12H11.3333V13.3333H12C15.1247 13.3333 17.6667 10.7913 17.6667 7.66667C17.6667 7.15667 17.5927 6.664 17.4653 6.19333C18.2475 7.30859 18.667 8.6378 18.6667 10C18.6667 13.676 15.676 16.6667 12 16.6667H11.3333V18H12C16.4113 18 20 14.4113 20 10C20 9.4 19.9293 8.81733 19.804 8.25467C20.3704 9.42205 20.6653 10.7025 20.6667 12C20.6667 13.41 20.3387 14.7553 19.692 15.9973L20.8747 16.6127C21.6134 15.1873 21.9993 13.6054 22 12C22 6.486 17.514 2 12 2Z" fill="black"/>
</svg>
