<svg width="24" height="24" viewBox="0 0 24 24" fill="none" xmlns="http://www.w3.org/2000/svg">
<path d="M7.79995 2.39999C6.4762 2.39999 5.39995 3.47624 5.39995 4.79999V6.59999H3.59995C2.2762 6.59999 1.19995 7.67624 1.19995 8.99999V19.2C1.19995 20.5237 2.2762 21.6 3.59995 21.6H20.4C21.7237 21.6 22.8 20.5237 22.8 19.2V8.99999C22.8 7.67624 21.7237 6.59999 20.4 6.59999H18.6V4.79999C18.6 3.47624 17.5237 2.39999 16.2 2.39999H7.79995ZM7.19995 4.79999C7.19995 4.46999 7.46995 4.19999 7.79995 4.19999H16.2C16.53 4.19999 16.8 4.46999 16.8 4.79999V7.49999C16.8 7.99874 17.2012 8.39999 17.7 8.39999H20.4C20.73 8.39999 21 8.66999 21 8.99999V19.2C21 19.53 20.73 19.8 20.4 19.8H13.8V16.8C13.8 16.1362 13.2637 15.6 12.6 15.6H11.4C10.7362 15.6 10.2 16.1362 10.2 16.8V19.8H3.59995C3.26995 19.8 2.99995 19.53 2.99995 19.2V8.99999C2.99995 8.66999 3.26995 8.39999 3.59995 8.39999H6.29995C6.7987 8.39999 7.19995 7.99874 7.19995 7.49999V4.79999ZM5.39995 10.8C5.06995 10.8 4.79995 11.07 4.79995 11.4V12.6C4.79995 12.93 5.06995 13.2 5.39995 13.2H6.59995C6.92995 13.2 7.19995 12.93 7.19995 12.6V11.4C7.19995 11.07 6.92995 10.8 6.59995 10.8H5.39995ZM4.79995 15V16.2C4.79995 16.53 5.06995 16.8 5.39995 16.8H6.59995C6.92995 16.8 7.19995 16.53 7.19995 16.2V15C7.19995 14.67 6.92995 14.4 6.59995 14.4H5.39995C5.06995 14.4 4.79995 14.67 4.79995 15ZM16.8 15V16.2C16.8 16.53 17.07 16.8 17.4 16.8H18.6C18.93 16.8 19.2 16.53 19.2 16.2V15C19.2 14.67 18.93 14.4 18.6 14.4H17.4C17.07 14.4 16.8 14.67 16.8 15ZM17.4 10.8C17.07 10.8 16.8 11.07 16.8 11.4V12.6C16.8 12.93 17.07 13.2 17.4 13.2H18.6C18.93 13.2 19.2 12.93 19.2 12.6V11.4C19.2 11.07 18.93 10.8 18.6 10.8H17.4ZM11.1 6.29999V7.49999H9.89995C9.56995 7.49999 9.29995 7.76999 9.29995 8.09999V8.69999C9.29995 9.02999 9.56995 9.29999 9.89995 9.29999H11.1V10.5C11.1 10.83 11.37 11.1 11.7 11.1H12.3C12.63 11.1 12.9 10.83 12.9 10.5V9.29999H14.1C14.43 9.29999 14.7 9.02999 14.7 8.69999V8.09999C14.7 7.76999 14.43 7.49999 14.1 7.49999H12.9V6.29999C12.9 5.96999 12.63 5.69999 12.3 5.69999H11.7C11.37 5.69999 11.1 5.96999 11.1 6.29999Z" fill="black"/>
</svg>
