<svg width="24" height="24" viewBox="0 0 24 24" fill="none" xmlns="http://www.w3.org/2000/svg">
<g clip-path="url(#clip0_16_745)">
<path d="M0.75 14.251V23.251M0.75 21.751H15.75C15.75 20.9553 15.4339 20.1923 14.8713 19.6297C14.3087 19.0671 13.5456 18.751 12.75 18.751H9M9 18.751C9 17.9553 8.68393 17.1923 8.12132 16.6297C7.55871 16.0671 6.79565 15.751 6 15.751H0.75M9 18.751H6M23.25 6C23.25 5.80109 23.171 5.61032 23.0303 5.46967C22.8897 5.32902 22.6989 5.25 22.5 5.25H18.75V1.5C18.75 1.30109 18.671 1.11032 18.5303 0.96967C18.3897 0.829018 18.1989 0.75 18 0.75H15C14.8011 0.75 14.6103 0.829018 14.4697 0.96967C14.329 1.11032 14.25 1.30109 14.25 1.5V5.25H10.5C10.3011 5.25 10.1103 5.32902 9.96967 5.46967C9.82902 5.61032 9.75 5.80109 9.75 6V9C9.75 9.19891 9.82902 9.38968 9.96967 9.53033C10.1103 9.67098 10.3011 9.75 10.5 9.75H14.25V13.5C14.25 13.6989 14.329 13.8897 14.4697 14.0303C14.6103 14.171 14.8011 14.25 15 14.25H18C18.1989 14.25 18.3897 14.171 18.5303 14.0303C18.671 13.8897 18.75 13.6989 18.75 13.5V9.75H22.5C22.6989 9.75 22.8897 9.67098 23.0303 9.53033C23.171 9.38968 23.25 9.19891 23.25 9V6Z" stroke="black" stroke-width="1.5" stroke-linecap="round" stroke-linejoin="round"/>
</g>
<defs>
<clipPath id="clip0_16_745">
<rect width="24" height="24" fill="white"/>
</clipPath>
</defs>
</svg>
