<svg width="24" height="24" viewBox="0 0 24 24" fill="none" xmlns="http://www.w3.org/2000/svg">
<path d="M16 2C19.3137 2 22 4.68629 22 8V19C22 20.6569 20.6569 22 19 22H5C3.34315 22 2 20.6569 2 19V5C2 3.34315 3.34315 2 5 2H16ZM12.5996 6C11.8744 6.00005 11.2162 6.14106 10.625 6.42285C10.0336 6.70476 9.54842 7.07141 9.16992 7.52246C9.13838 7.34526 9.11057 7.16743 9.08691 6.99023C9.06327 6.81326 9.03542 6.66832 9.00391 6.55566C8.95655 6.42691 8.84623 6.34201 8.67285 6.30176C8.49928 6.26154 8.12099 6.24122 7.53809 6.24121H7.41895C7.088 6.24122 6.824 6.24953 6.62695 6.26562C6.43003 6.28172 6.28409 6.30572 6.18945 6.33789C6.09505 6.37003 6.03935 6.41451 6.02344 6.4707C6.00767 6.52708 6 6.59621 6 6.67676C6.04731 7.3372 6.08663 8.14707 6.11816 9.10547C6.1497 10.0638 6.16602 11.0185 6.16602 11.9688V18.6377C6.16603 18.7021 6.17754 18.7584 6.20117 18.8066C6.22483 18.855 6.28812 18.8909 6.39062 18.915C6.49311 18.9392 6.65061 18.9595 6.86328 18.9756C7.07618 18.9917 7.37248 19 7.75098 19H7.86914C8.21568 19 8.49138 18.9917 8.69629 18.9756C8.90131 18.9595 9.05569 18.9392 9.1582 18.915C9.26059 18.8909 9.32786 18.8549 9.35938 18.8066C9.39083 18.7584 9.40623 18.702 9.40625 18.6377V11.6543C9.40625 11.2355 9.42256 10.8891 9.4541 10.6152C9.48564 10.3253 9.54029 10.0793 9.61914 9.87793C9.69801 9.67668 9.86403 9.49598 10.1162 9.33496C10.337 9.20611 10.5892 9.10936 10.873 9.04492C11.1569 8.98049 11.4331 8.94824 11.7012 8.94824C12.0481 8.94825 12.3598 8.99613 12.6357 9.09277C12.9116 9.18942 13.1285 9.32675 13.2861 9.50391C13.3807 9.61662 13.4594 9.73741 13.5225 9.86621C13.5855 9.99508 13.6325 10.1563 13.6641 10.3496C13.6956 10.5429 13.7196 10.7806 13.7354 11.0625C13.7511 11.3443 13.7588 11.6946 13.7588 12.1133V18.6377C13.7588 18.7021 13.7713 18.7584 13.7949 18.8066C13.8186 18.8548 13.8813 18.8909 13.9834 18.915C14.0859 18.9392 14.2441 18.9595 14.457 18.9756C14.6699 18.9917 14.9654 19 15.3438 19H15.4619C15.8087 19 16.085 18.9917 16.29 18.9756C16.4951 18.9595 16.6494 18.9392 16.752 18.915C16.8542 18.8909 16.9216 18.8549 16.9531 18.8066C16.9845 18.7584 17 18.702 17 18.6377V11.1953C17 10.2771 16.9137 9.51156 16.7402 8.89941C16.5668 8.2873 16.2819 7.75572 15.8877 7.30469C15.5251 6.88607 15.0683 6.56335 14.5166 6.33789C13.9646 6.11236 13.3251 6 12.5996 6Z" fill="#6B2976"/>
</svg>
