<svg width="24" height="24" viewBox="0 0 24 24" fill="none" xmlns="http://www.w3.org/2000/svg">
<path d="M13.5 6.5V5.5H12.5V4.5H11.5V5.5H10.5V6.5H11.5V7.5H12.5V6.5H13.5Z" fill="black"/>
<path fill-rule="evenodd" clip-rule="evenodd" d="M15.66 8.3835L16.649 5.5805C16.917 4.8205 16.535 3.9605 15.7345 3.707C14.805 3.412 13.285 3 12 3C10.715 3 9.19502 3.412 8.26502 3.707C7.46502 3.961 7.08302 4.821 7.35102 5.5805L8.34052 8.3835C8.07193 8.99239 7.9595 9.65868 8.01342 10.322C8.06735 10.9853 8.28592 11.6247 8.64933 12.1822C9.01275 12.7397 9.50953 13.1977 10.0947 13.5148C10.6798 13.8318 11.3348 13.9979 12.0003 13.9979C12.6658 13.9979 13.3208 13.8318 13.9059 13.5148C14.491 13.1977 14.9878 12.7397 15.3512 12.1822C15.7146 11.6247 15.9332 10.9853 15.9871 10.322C16.041 9.65868 15.9286 8.99239 15.66 8.3835ZM12 4C10.88 4 9.48552 4.369 8.56752 4.66C8.33752 4.733 8.20252 4.989 8.29402 5.248L9.30602 8.115C11.0995 7.545 12.9005 7.545 14.694 8.115L15.706 5.248C15.7975 4.989 15.6625 4.733 15.4325 4.6605C14.5145 4.369 13.1195 4 12 4ZM14.903 9.2405C14.8765 9.23513 14.8499 9.2276 14.8245 9.218C12.9375 8.5105 11.0625 8.5105 9.17552 9.218C9.15001 9.22763 9.12376 9.23515 9.09702 9.2405C8.98155 9.68407 8.96926 10.1482 9.06109 10.5973C9.15292 11.0463 9.34642 11.4684 9.62675 11.831C9.90707 12.1936 10.2668 12.4872 10.6782 12.6892C11.0897 12.8912 11.5419 12.9962 12.0003 12.9962C12.4586 12.9962 12.9109 12.8912 13.3223 12.6892C13.7338 12.4872 14.0935 12.1936 14.3738 11.831C14.6541 11.4684 14.8476 11.0463 14.9394 10.5973C15.0313 10.1482 15.0185 9.68407 14.903 9.2405Z" fill="black"/>
<path d="M17 17H18V18H17V19H16V18H15V17H16V16H17V17Z" fill="black"/>
<path fill-rule="evenodd" clip-rule="evenodd" d="M8.4395 14C8.4395 14 3 15.6965 3 17.7335V21H21V17.7335C21 15.6965 15.5605 14 15.5605 14L12.5745 16.0965C12.4062 16.2146 12.2056 16.278 12 16.278C11.7944 16.278 11.5938 16.2146 11.4255 16.0965L8.4395 14ZM15.7205 15.11L13.1495 16.915C12.8129 17.1514 12.4116 17.2782 12.0002 17.2782C11.5889 17.2782 11.1876 17.1514 10.851 16.915L8.2795 15.11C7.55777 15.3632 6.85198 15.6597 6.166 15.998C5.518 16.321 4.925 16.6795 4.508 17.044C4.0575 17.4375 4 17.6715 4 17.7335V20H20V17.7335C20 17.6715 19.9425 17.4375 19.492 17.0435C19.075 16.6795 18.482 16.321 17.8335 15.9975C17.2557 15.7129 16.6637 15.4579 16.06 15.2335C15.9347 15.1868 15.8215 15.146 15.7205 15.11Z" fill="black"/>
</svg>
