<svg width="24" height="24" viewBox="0 0 24 24" fill="none" xmlns="http://www.w3.org/2000/svg">
<path d="M15.3333 15.3333C15.1348 14.5914 14.7043 13.9324 14.1046 13.4526C13.5048 12.9729 12.7674 12.6975 12 12.6667C11.2326 12.6975 10.4952 12.9729 9.89545 13.4526C9.29573 13.9324 8.86516 14.5914 8.66667 15.3333M16.0009 5.06667C17.2186 5.77085 18.23 6.78234 18.9342 8M18.9342 16C18.23 17.2177 17.2186 18.2291 16.0009 18.9333M8.00089 18.9333C6.78322 18.2291 5.77174 17.2177 5.06756 16M5.06756 8C5.77174 6.78234 6.78322 5.77085 8.00089 5.06667M10 10C9.99439 10.2661 10.042 10.5307 10.1399 10.7782C10.2379 11.0257 10.3843 11.2512 10.5705 11.4414C10.7567 11.6316 10.9791 11.7827 11.2245 11.8859C11.4699 11.989 11.7334 12.0422 11.9996 12.0422C12.2657 12.0422 12.5293 11.989 12.7747 11.8859C13.02 11.7827 13.2424 11.6316 13.4286 11.4414C13.6148 11.2512 13.7612 11.0257 13.8592 10.7782C13.9572 10.5307 14.0047 10.2661 13.9991 10C13.9881 9.47698 13.7726 8.97911 13.3988 8.61312C13.025 8.24713 12.5227 8.04216 11.9996 8.04216C11.4764 8.04216 10.9741 8.24713 10.6003 8.61312C10.2265 8.97911 10.011 9.47698 10 10ZM10.3333 3.66667C10.3333 4.10869 10.5089 4.53262 10.8215 4.84518C11.134 5.15774 11.558 5.33333 12 5.33333C12.442 5.33333 12.866 5.15774 13.1785 4.84518C13.4911 4.53262 13.6667 4.10869 13.6667 3.66667C13.6667 3.22464 13.4911 2.80072 13.1785 2.48816C12.866 2.17559 12.442 2 12 2C11.558 2 11.134 2.17559 10.8215 2.48816C10.5089 2.80072 10.3333 3.22464 10.3333 3.66667ZM18.6667 12C18.6667 12.442 18.8423 12.866 19.1548 13.1785C19.4674 13.4911 19.8913 13.6667 20.3333 13.6667C20.7754 13.6667 21.1993 13.4911 21.5118 13.1785C21.8244 12.866 22 12.442 22 12C22 11.558 21.8244 11.134 21.5118 10.8215C21.1993 10.5089 20.7754 10.3333 20.3333 10.3333C19.8913 10.3333 19.4674 10.5089 19.1548 10.8215C18.8423 11.134 18.6667 11.558 18.6667 12ZM10.3333 20.3333C10.3333 20.7754 10.5089 21.1993 10.8215 21.5118C11.134 21.8244 11.558 22 12 22C12.442 22 12.866 21.8244 13.1785 21.5118C13.4911 21.1993 13.6667 20.7754 13.6667 20.3333C13.6667 19.8913 13.4911 19.4674 13.1785 19.1548C12.866 18.8423 12.442 18.6667 12 18.6667C11.558 18.6667 11.134 18.8423 10.8215 19.1548C10.5089 19.4674 10.3333 19.8913 10.3333 20.3333ZM2 12C2 12.442 2.17559 12.866 2.48816 13.1785C2.80072 13.4911 3.22464 13.6667 3.66667 13.6667C4.10869 13.6667 4.53262 13.4911 4.84518 13.1785C5.15774 12.866 5.33333 12.442 5.33333 12C5.33333 11.558 5.15774 11.134 4.84518 10.8215C4.53262 10.5089 4.10869 10.3333 3.66667 10.3333C3.22464 10.3333 2.80072 10.5089 2.48816 10.8215C2.17559 11.134 2 11.558 2 12Z" stroke="black" stroke-width="1.5" stroke-linecap="round" stroke-linejoin="round"/>
</svg>
