<svg width="24" height="24" viewBox="0 0 24 24" fill="none" xmlns="http://www.w3.org/2000/svg">
<path d="M10.5 13V14.5C10.5 14.7833 10.596 15.021 10.788 15.213C10.98 15.405 11.2173 15.5007 11.5 15.5H12.5C12.7833 15.5 13.021 15.404 13.213 15.212C13.405 15.02 13.5007 14.7827 13.5 14.5V13H15C15.2833 13 15.521 12.904 15.713 12.712C15.905 12.52 16.0007 12.2827 16 12V11C16 10.7167 15.904 10.4793 15.712 10.288C15.52 10.0967 15.2827 10.0007 15 9.99999H13.5V8.49999C13.5 8.21666 13.404 7.97933 13.212 7.78799C13.02 7.59666 12.7827 7.50066 12.5 7.49999H11.5C11.2167 7.49999 10.9793 7.59599 10.788 7.78799C10.5967 7.97999 10.5007 8.21733 10.5 8.49999V9.99999H9C8.71667 9.99999 8.47933 10.096 8.288 10.288C8.09667 10.48 8.00067 10.7173 8 11V12C8 12.2833 8.096 12.521 8.288 12.713C8.48 12.905 8.71733 13.0007 9 13H10.5ZM11.675 21.875C11.575 21.8583 11.475 21.8333 11.375 21.8C9.125 21.05 7.33333 19.6623 6 17.637C4.66667 15.6117 4 13.4327 4 11.1V6.37499C4 5.95833 4.121 5.58333 4.363 5.24999C4.605 4.91666 4.91733 4.67499 5.3 4.52499L11.3 2.27499C11.5333 2.19166 11.7667 2.14999 12 2.14999C12.2333 2.14999 12.4667 2.19166 12.7 2.27499L18.7 4.52499C19.0833 4.67499 19.396 4.91666 19.638 5.24999C19.88 5.58333 20.0007 5.95833 20 6.37499V11.1C20 13.4333 19.3333 15.6127 18 17.638C16.6667 19.6633 14.875 21.0507 12.625 21.8C12.525 21.8333 12.425 21.8583 12.325 21.875C12.225 21.8917 12.1167 21.9 12 21.9C11.8833 21.9 11.775 21.8917 11.675 21.875ZM12 19.9C13.7333 19.35 15.1667 18.25 16.3 16.6C17.4333 14.95 18 13.1167 18 11.1V6.37499L12 4.12499L6 6.37499V11.1C6 13.1167 6.56667 14.95 7.7 16.6C8.83333 18.25 10.2667 19.35 12 19.9Z" fill="black"/>
</svg>
