<svg width="25" height="24" viewBox="0 0 25 24" fill="none" xmlns="http://www.w3.org/2000/svg">
<path d="M19.7287 7.50969L19.7567 7.50849C21.0876 7.45679 22.4375 8.09129 23.2839 9.13196C23.4812 9.37442 23.9552 10.1388 23.9461 10.1305L23.9552 10.1388L21.7452 11.0872C21.6788 10.9776 21.5764 10.7586 21.5115 10.6706C21.3066 10.4155 20.9782 10.1592 20.6695 10.0514C19.6719 9.70299 18.476 10.1117 18.0946 11.1535C17.9118 11.6531 17.9259 12.2711 18.1552 12.7518C18.3766 13.2157 18.8351 13.5868 19.3147 13.7515C20.1009 14.0153 20.8855 13.7555 21.4355 13.1445C21.5241 13.046 21.7049 12.7342 21.7733 12.7011L22.7983 13.0878L23.9203 13.5693C23.7142 13.9965 23.5156 14.3575 23.2077 14.7241C21.7184 16.498 18.988 16.7429 17.2037 15.254C14.1256 12.6855 15.7385 7.7881 19.7287 7.50969Z" fill="black"/>
<path d="M0.956116 7.86087L8.89149 7.86978L8.88789 10.4754L7.22713 10.483L6.27074 10.4832C6.27074 10.4832 6.27167 12.5174 6.27167 13.5117L6.27098 15.8858H3.57435C3.60237 14.5296 3.56347 13.1611 3.57904 11.8037C3.58403 11.3684 3.57142 10.4805 3.57142 10.4805L0.956134 10.4907L0.956116 7.86087Z" fill="black"/>
<path d="M11.5186 5.41797C11.5186 5.41797 16.6129 15.4775 16.8203 15.8857C16.8203 15.8857 16.2574 15.8876 16.0615 15.8896C15.6011 15.8937 15.1402 15.8947 14.6797 15.8936H7.51858C7.33914 15.8932 6.37058 15.8936 6.37058 15.8936C6.37058 15.8936 6.89753 14.7702 7.0342 14.4873L7.83987 12.8545C8.30046 11.9099 8.8029 10.9528 9.26467 10.0039C9.99789 8.46629 11.5186 5.41797 11.5186 5.41797ZM11.4483 10.1611C11.284 10.4183 11.1871 10.7047 11.0528 10.9766C10.9132 11.2589 9.65139 13.7171 9.6592 13.7852C9.70621 13.8087 9.72903 13.8189 9.77835 13.835L9.7803 13.8359C9.92439 13.8181 10.7124 13.8321 10.8828 13.832L13.4121 13.833C13.236 13.3476 12.8785 12.7221 12.6426 12.251C12.3243 11.6153 12.0024 10.8718 11.6543 10.2607L11.5772 10.1318C11.5032 10.1172 11.5275 10.1197 11.4483 10.1611Z" fill="black"/>
</svg>
