<svg width="24" height="24" viewBox="0 0 24 24" fill="none" xmlns="http://www.w3.org/2000/svg">
<path d="M18.25 12.751C18.6797 12.751 19.0833 12.8333 19.4609 12.998C19.8385 13.1627 20.1706 13.3867 20.457 13.67C20.7435 13.9532 20.9681 14.2892 21.1309 14.6779C21.2936 15.0665 21.375 15.4783 21.375 15.913C21.375 16.2556 21.3229 16.5883 21.2188 16.9111C21.1146 17.2339 20.9583 17.5336 20.75 17.8103V22L18.25 20.7352L15.75 22V17.8103C15.5482 17.5336 15.3952 17.2339 15.291 16.9111C15.1868 16.5883 15.1315 16.2556 15.125 15.913C15.125 15.4783 15.2064 15.0698 15.3691 14.6877C15.5319 14.3057 15.7533 13.9697 16.0332 13.6798C16.3132 13.39 16.6452 13.1627 17.0293 12.998C17.4134 12.8333 17.8203 12.751 18.25 12.751ZM18.25 14.0158C17.9896 14.0158 17.7454 14.0652 17.5176 14.164C17.2897 14.2628 17.0911 14.3979 16.9219 14.5692C16.7526 14.7404 16.6191 14.9414 16.5215 15.1719C16.4238 15.4025 16.375 15.6495 16.375 15.913C16.375 16.1765 16.4238 16.4236 16.5215 16.6542C16.6191 16.8847 16.7526 17.0856 16.9219 17.2569C17.0911 17.4282 17.2897 17.5632 17.5176 17.6621C17.7454 17.7609 17.9896 17.8103 18.25 17.8103C18.5104 17.8103 18.7546 17.7609 18.9824 17.6621C19.2103 17.5632 19.4089 17.4282 19.5781 17.2569C19.7474 17.0856 19.8809 16.8847 19.9785 16.6542C20.0762 16.4236 20.125 16.1765 20.125 15.913C20.125 15.6495 20.0762 15.4025 19.9785 15.1719C19.8809 14.9414 19.7474 14.7404 19.5781 14.5692C19.4089 14.3979 19.2103 14.2628 18.9824 14.164C18.7546 14.0652 18.5104 14.0158 18.25 14.0158ZM19.5 19.9447V18.8083C19.1094 18.9862 18.6927 19.0751 18.25 19.0751C17.8073 19.0751 17.3906 18.9862 17 18.8083V19.9447L18.25 19.3123L19.5 19.9447ZM18.25 7.05929C17.9049 7.05929 17.5827 7.12516 17.2832 7.25692C16.9837 7.38867 16.7168 7.56983 16.4824 7.8004C16.248 8.03096 16.069 8.29776 15.9453 8.60079C15.8216 8.90382 15.7565 9.2332 15.75 9.58893C15.75 10.195 15.6165 10.7648 15.3496 11.2984C15.0827 11.832 14.7051 12.2833 14.2168 12.6522C14.3405 12.7115 14.4577 12.7773 14.5684 12.8498C14.679 12.9223 14.793 12.998 14.9102 13.0771L14.1777 14.1047C13.8587 13.8742 13.5137 13.6963 13.1426 13.5711C12.7715 13.446 12.3906 13.3834 12 13.3834C11.4792 13.3834 10.9941 13.4822 10.5449 13.6798C10.0957 13.8775 9.69857 14.1476 9.35352 14.4901C9.00846 14.8327 8.73828 15.2378 8.54297 15.7055C8.34766 16.1733 8.25 16.664 8.25 17.1779H7C7 16.697 7.0651 16.2325 7.19531 15.7846C7.32552 15.3366 7.51107 14.915 7.75195 14.5198C7.99284 14.1245 8.28255 13.7688 8.62109 13.4526C8.95964 13.1364 9.34375 12.8663 9.77344 12.6423C9.29167 12.28 8.91732 11.832 8.65039 11.2984C8.38346 10.7648 8.25 10.195 8.25 9.58893C8.25 9.23979 8.1849 8.9137 8.05469 8.61067C7.92448 8.30764 7.74544 8.03755 7.51758 7.8004C7.28971 7.56324 7.02604 7.38208 6.72656 7.25692C6.42708 7.13175 6.10156 7.06588 5.75 7.05929C5.40495 7.05929 5.08268 7.12516 4.7832 7.25692C4.48372 7.38867 4.2168 7.56983 3.98242 7.8004C3.74805 8.03096 3.56901 8.29776 3.44531 8.60079C3.32161 8.90382 3.25651 9.2332 3.25 9.58893H2C2 9.24638 2.04557 8.9137 2.13672 8.59091C2.22786 8.26812 2.35482 7.96179 2.51758 7.67194C2.68034 7.38208 2.88216 7.11858 3.12305 6.88142C3.36393 6.64427 3.63411 6.44005 3.93359 6.26877C3.71875 6.03821 3.55273 5.77141 3.43555 5.46838C3.31836 5.16535 3.25651 4.85244 3.25 4.52964C3.25 4.1805 3.3151 3.85441 3.44531 3.55138C3.57552 3.24835 3.75456 2.97826 3.98242 2.74111C4.21029 2.50395 4.47396 2.32279 4.77344 2.19763C5.07292 2.07246 5.39844 2.00659 5.75 2C6.09505 2 6.41732 2.06588 6.7168 2.19763C7.01628 2.32938 7.2832 2.51054 7.51758 2.74111C7.75195 2.97167 7.93099 3.23847 8.05469 3.5415C8.17839 3.84453 8.24349 4.17391 8.25 4.52964C8.25 4.85244 8.19141 5.16535 8.07422 5.46838C7.95703 5.77141 7.78776 6.03821 7.56641 6.26877C8.10026 6.56522 8.53646 6.97365 8.875 7.49407C9.05078 7.23057 9.2526 6.99341 9.48047 6.78261C9.70833 6.5718 9.95573 6.39394 10.2227 6.24901C10.4896 6.10408 10.7728 5.99209 11.0723 5.91304C11.3717 5.83399 11.681 5.79447 12 5.79447C12.3125 5.79447 12.6185 5.83399 12.918 5.91304C13.2174 5.99209 13.5007 6.10408 13.7676 6.24901C14.0345 6.39394 14.2852 6.5718 14.5195 6.78261C14.7539 6.99341 14.9557 7.23057 15.125 7.49407C15.4635 6.97365 15.8997 6.56522 16.4336 6.26877C16.2188 6.03821 16.0527 5.77141 15.9355 5.46838C15.8184 5.16535 15.7565 4.85244 15.75 4.52964C15.75 4.1805 15.8151 3.85441 15.9453 3.55138C16.0755 3.24835 16.2546 2.97826 16.4824 2.74111C16.7103 2.50395 16.974 2.32279 17.2734 2.19763C17.5729 2.07246 17.8984 2.00659 18.25 2C18.5951 2 18.9173 2.06588 19.2168 2.19763C19.5163 2.32938 19.7832 2.51054 20.0176 2.74111C20.252 2.97167 20.431 3.23847 20.5547 3.5415C20.6784 3.84453 20.7435 4.17391 20.75 4.52964C20.75 4.85244 20.6914 5.16535 20.5742 5.46838C20.457 5.77141 20.2878 6.03821 20.0664 6.26877C20.3659 6.44005 20.6328 6.64427 20.8672 6.88142C21.1016 7.11858 21.3034 7.37879 21.4727 7.66206C21.6419 7.94532 21.7721 8.25165 21.8633 8.58103C21.9544 8.91041 22 9.24638 22 9.58893H20.75C20.75 9.23979 20.6849 8.9137 20.5547 8.61067C20.4245 8.30764 20.2454 8.03755 20.0176 7.8004C19.7897 7.56324 19.526 7.38208 19.2266 7.25692C18.9271 7.13175 18.6016 7.06588 18.25 7.05929ZM17 4.52964C17 4.70751 17.0326 4.8722 17.0977 5.02372C17.1628 5.17523 17.2507 5.30698 17.3613 5.41897C17.472 5.53096 17.6055 5.62319 17.7617 5.69565C17.918 5.76812 18.0807 5.80105 18.25 5.79447C18.4258 5.79447 18.5885 5.76153 18.7383 5.69565C18.888 5.62978 19.0182 5.54084 19.1289 5.42885C19.2396 5.31686 19.3307 5.18182 19.4023 5.02372C19.474 4.86561 19.5065 4.70092 19.5 4.52964C19.5 4.35178 19.4674 4.18709 19.4023 4.03557C19.3372 3.88406 19.2493 3.75231 19.1387 3.64032C19.028 3.52833 18.8945 3.4361 18.7383 3.36364C18.582 3.29117 18.4193 3.25823 18.25 3.26482C18.0742 3.26482 17.9115 3.29776 17.7617 3.36364C17.612 3.42951 17.4818 3.51845 17.3711 3.63043C17.2604 3.74242 17.1693 3.87747 17.0977 4.03557C17.026 4.19368 16.9935 4.35837 17 4.52964ZM4.5 4.52964C4.5 4.70751 4.53255 4.8722 4.59766 5.02372C4.66276 5.17523 4.75065 5.30698 4.86133 5.41897C4.97201 5.53096 5.10547 5.62319 5.26172 5.69565C5.41797 5.76812 5.58073 5.80105 5.75 5.79447C5.92578 5.79447 6.08854 5.76153 6.23828 5.69565C6.38802 5.62978 6.51823 5.54084 6.62891 5.42885C6.73958 5.31686 6.83073 5.18182 6.90234 5.02372C6.97396 4.86561 7.00651 4.70092 7 4.52964C7 4.35178 6.96745 4.18709 6.90234 4.03557C6.83724 3.88406 6.74935 3.75231 6.63867 3.64032C6.52799 3.52833 6.39453 3.4361 6.23828 3.36364C6.08203 3.29117 5.91927 3.25823 5.75 3.26482C5.57422 3.26482 5.41146 3.29776 5.26172 3.36364C5.11198 3.42951 4.98177 3.51845 4.87109 3.63043C4.76042 3.74242 4.66927 3.87747 4.59766 4.03557C4.52604 4.19368 4.49349 4.35837 4.5 4.52964ZM9.5 9.58893C9.5 9.93808 9.5651 10.2642 9.69531 10.5672C9.82552 10.8702 10.0046 11.1403 10.2324 11.3775C10.4603 11.6146 10.724 11.7958 11.0234 11.9209C11.3229 12.0461 11.6484 12.112 12 12.1186C12.3451 12.1186 12.6673 12.0527 12.9668 11.9209C13.2663 11.7892 13.5332 11.608 13.7676 11.3775C14.002 11.1469 14.181 10.8801 14.3047 10.5771C14.4284 10.274 14.4935 9.94466 14.5 9.58893C14.5 9.23979 14.4349 8.9137 14.3047 8.61067C14.1745 8.30764 13.9954 8.03755 13.7676 7.8004C13.5397 7.56324 13.276 7.38208 12.9766 7.25692C12.6771 7.13175 12.3516 7.06588 12 7.05929C11.6549 7.05929 11.3327 7.12516 11.0332 7.25692C10.7337 7.38867 10.4668 7.56983 10.2324 7.8004C9.99805 8.03096 9.81901 8.29776 9.69531 8.60079C9.57161 8.90382 9.50651 9.2332 9.5 9.58893Z" fill="black"/>
</svg>
