<svg width="24" height="24" viewBox="0 0 24 24" fill="none" xmlns="http://www.w3.org/2000/svg">
<path d="M17.0025 3.0975L17.1165 3.327L17.982 5.6265C18.0495 5.8065 18.192 5.9505 18.3735 6.018L20.5935 6.8505C21.5685 7.2165 22.092 8.2575 21.8325 9.243L21.7695 9.438L20.7375 11.7225C20.6981 11.8097 20.6778 11.9043 20.6778 12C20.6778 12.0957 20.6981 12.1903 20.7375 12.2775L21.717 14.436C21.9228 14.8888 21.9534 15.4017 21.803 15.8758C21.6525 16.3498 21.3317 16.7513 20.9025 17.0025L20.673 17.1165L18.3735 17.982C18.2842 18.0159 18.2032 18.0683 18.1357 18.1358C18.0682 18.2032 18.0158 18.2843 17.982 18.3735L17.1495 20.5935C16.9749 21.0596 16.6335 21.4443 16.1915 21.6732C15.7496 21.9021 15.2384 21.9589 14.757 21.8325L14.562 21.7695L12.2775 20.7375C12.1902 20.6982 12.0957 20.6778 12 20.6778C11.9043 20.6778 11.8097 20.6982 11.7225 20.7375L9.56397 21.717C9.11121 21.9228 8.59822 21.9535 8.12418 21.803C7.65013 21.6526 7.2487 21.3317 6.99747 20.9025L6.88347 20.673L6.01797 18.3735C5.9841 18.2843 5.93169 18.2032 5.86421 18.1358C5.79672 18.0683 5.7157 18.0159 5.62647 17.982L3.40647 17.1495C2.94038 16.9749 2.55565 16.6336 2.32677 16.1916C2.09788 15.7496 2.04112 15.2384 2.16747 14.757L2.23047 14.562L3.26397 12.2775C3.30331 12.1903 3.32365 12.0957 3.32365 12C3.32365 11.9043 3.30331 11.8097 3.26397 11.7225L2.28297 9.564C2.07716 9.11124 2.04651 8.59825 2.19695 8.12421C2.34739 7.65016 2.66824 7.24873 3.09747 6.9975L3.32697 6.8835L5.62647 6.018C5.7157 5.98413 5.79672 5.93172 5.86421 5.86424C5.93169 5.79675 5.9841 5.71573 6.01797 5.6265L6.85047 3.4065C7.02508 2.94041 7.36642 2.55568 7.8084 2.3268C8.25037 2.09791 8.76155 2.04115 9.24297 2.1675L9.43797 2.2305L11.7225 3.2625C11.8097 3.30184 11.9043 3.32218 12 3.32218C12.0957 3.32218 12.1902 3.30184 12.2775 3.2625L14.436 2.283C14.8887 2.07719 15.4017 2.04654 15.8758 2.19698C16.3498 2.34742 16.7512 2.66827 17.0025 3.0975ZM8.10597 3.8775L7.27197 6.0975C7.1712 6.36566 7.01428 6.60918 6.81172 6.81175C6.60915 7.01431 6.36563 7.17123 6.09747 7.272L3.87747 8.106L3.73047 8.181C3.60192 8.27116 3.50882 8.40332 3.46721 8.55472C3.42559 8.70613 3.43806 8.8673 3.50247 9.0105L4.48347 11.169C4.72347 11.697 4.72347 12.303 4.48347 12.831L3.49347 15.0105L3.45297 15.1485C3.42634 15.3027 3.45412 15.4614 3.53155 15.5974C3.60899 15.7334 3.73127 15.8382 3.87747 15.894L6.09747 16.728C6.64047 16.932 7.06947 17.3595 7.27197 17.9025L8.10597 20.1225L8.18247 20.271C8.36247 20.532 8.71047 20.634 9.01047 20.4975L11.169 19.5165C11.43 19.398 11.7133 19.3367 12 19.3367C12.2866 19.3367 12.57 19.398 12.831 19.5165L15.0105 20.5065L15.1485 20.547C15.3027 20.5736 15.4613 20.5459 15.5973 20.4684C15.7333 20.391 15.8382 20.2687 15.894 20.1225L16.728 17.9025C16.8287 17.6343 16.9857 17.3908 17.1882 17.1883C17.3908 16.9857 17.6343 16.8288 17.9025 16.728L20.1225 15.894L20.271 15.8175C20.3989 15.7272 20.4915 15.5952 20.5328 15.4441C20.5741 15.2931 20.5616 15.1324 20.4975 14.9895L19.5165 12.831C19.398 12.57 19.3366 12.2867 19.3366 12C19.3366 11.7133 19.398 11.43 19.5165 11.169L20.5065 8.9895L20.547 8.8515C20.5736 8.69729 20.5458 8.53863 20.4684 8.40264C20.391 8.26665 20.2687 8.16179 20.1225 8.106L17.9025 7.272C17.6343 7.17123 17.3908 7.01431 17.1882 6.81175C16.9857 6.60918 16.8287 6.36566 16.728 6.0975L15.894 3.8775L15.8175 3.729C15.7272 3.60106 15.5952 3.5085 15.4441 3.46717C15.2931 3.42585 15.1323 3.43834 14.9895 3.5025L12.831 4.4835C12.57 4.60201 12.2866 4.66333 12 4.66333C11.7133 4.66333 11.43 4.60201 11.169 4.4835L9.00897 3.5025L8.96847 3.4845C8.80217 3.42224 8.61796 3.4285 8.45626 3.5019C8.29457 3.57529 8.16859 3.71133 8.10597 3.8775ZM10.467 14.019L15.246 8.5575C15.3556 8.43388 15.507 8.35509 15.6712 8.33624C15.8353 8.3174 16.0006 8.35983 16.1354 8.45539C16.2702 8.55095 16.365 8.69291 16.4015 8.85405C16.4381 9.01518 16.4138 9.18414 16.3335 9.3285L16.254 9.4395L11.004 15.4395C10.8975 15.5595 10.7517 15.6376 10.5928 15.6599C10.434 15.6821 10.2723 15.6471 10.137 15.561L10.026 15.471L7.77597 13.221C7.66083 13.1031 7.59315 12.9469 7.58585 12.7822C7.57856 12.6176 7.63216 12.456 7.73642 12.3284C7.84068 12.2007 7.9883 12.116 8.1511 12.0903C8.31389 12.0646 8.48045 12.0997 8.61897 12.189L8.72397 12.2745L10.467 14.019Z" fill="black"/>
</svg>
