<svg width="24" height="24" viewBox="0 0 24 24" fill="none" xmlns="http://www.w3.org/2000/svg">
<path d="M19.3744 14H21.9994V22H11.4997V14H14.1246V11.3333H19.3744V14ZM15.4371 14H18.062V12.6667H15.4371V14ZM20.6869 18H19.3744V19.3333H18.062V18H15.4371V19.3333H14.1246V18H12.8121V20.6667H20.6869V18ZM12.8121 15.3333V16.6667H20.6869V15.3333H12.8121ZM10.1872 10C10.1872 10.6458 10.0471 11.25 9.76682 11.8125C9.48656 12.375 9.08667 12.8472 8.56715 13.2292C8.87476 13.3889 9.16528 13.5729 9.43871 13.7813C9.71214 13.9896 9.96164 14.2222 10.1872 14.4792V18C10.1872 17.4514 10.0847 16.934 9.87961 16.4479C9.67454 15.9618 9.39428 15.5382 9.03882 15.1771C8.68336 14.816 8.26296 14.5278 7.77763 14.3125C7.29229 14.0972 6.78303 13.9931 6.24984 14C5.70298 14 5.19372 14.1042 4.72205 14.3125C4.25039 14.5208 3.83341 14.8056 3.47112 15.1667C3.10882 15.5278 2.82514 15.9549 2.62007 16.4479C2.415 16.941 2.31246 17.4583 2.31246 18H1C1 17.4931 1.06836 17.0035 1.20507 16.5313C1.34179 16.059 1.5366 15.6111 1.78953 15.1875C2.04245 14.7639 2.35347 14.3889 2.7226 14.0625C3.09173 13.7361 3.49504 13.4549 3.93253 13.2188C3.41985 12.8438 3.02338 12.375 2.74311 11.8125C2.46285 11.25 2.3193 10.6458 2.31246 10C2.31246 9.45139 2.415 8.93403 2.62007 8.44792C2.82514 7.96181 3.1054 7.53819 3.46086 7.17708C3.81632 6.81597 4.2333 6.52778 4.7118 6.3125C5.1903 6.09722 5.70298 5.99306 6.24984 6C6.74201 6 7.21026 6.08681 7.65458 6.26042C8.0989 6.43403 8.50563 6.69097 8.87476 7.03125C9.0935 6.82986 9.33617 6.65278 9.60276 6.5C9.37035 6.25694 9.19262 5.97569 9.06958 5.65625C8.94653 5.33681 8.8816 5.00694 8.87476 4.66667C8.87476 4.29861 8.94312 3.95486 9.07983 3.63542C9.21655 3.31597 9.40453 3.03125 9.64378 2.78125C9.88303 2.53125 10.1599 2.34028 10.4743 2.20833C10.7888 2.07639 11.1306 2.00694 11.4997 2C11.862 2 12.2003 2.06944 12.5148 2.20833C12.8292 2.34722 13.1095 2.53819 13.3556 2.78125C13.6017 3.02431 13.7896 3.30556 13.9195 3.625C14.0494 3.94444 14.1178 4.29167 14.1246 4.66667C14.1246 5.00694 14.0631 5.33681 13.94 5.65625C13.817 5.97569 13.6358 6.25694 13.3966 6.5C13.964 6.81944 14.4254 7.25 14.7808 7.79167C15.1363 7.25 15.5977 6.81944 16.1651 6.5C15.9326 6.25694 15.7549 5.97569 15.6319 5.65625C15.5088 5.33681 15.4439 5.00694 15.4371 4.66667C15.4371 4.29861 15.5054 3.95486 15.6421 3.63542C15.7788 3.31597 15.9668 3.03125 16.2061 2.78125C16.4453 2.53125 16.7222 2.34028 17.0366 2.20833C17.3511 2.07639 17.6928 2.00694 18.062 2C18.4243 2 18.7626 2.06944 19.0771 2.20833C19.3915 2.34722 19.6718 2.53819 19.9179 2.78125C20.164 3.02431 20.3519 3.30556 20.4818 3.625C20.6117 3.94444 20.6801 4.29167 20.6869 4.66667C20.6869 5.00694 20.6254 5.33681 20.5023 5.65625C20.3793 5.97569 20.1981 6.25694 19.9589 6.5C20.2733 6.67361 20.557 6.88542 20.8099 7.13542C21.0629 7.38542 21.2748 7.65972 21.4457 7.95833C21.6166 8.25694 21.7533 8.58333 21.8558 8.9375C21.9583 9.29167 22.0062 9.64583 21.9994 10H20.6869C20.6869 9.63194 20.6185 9.28819 20.4818 8.96875C20.3451 8.64931 20.1571 8.36458 19.9179 8.11458C19.6786 7.86458 19.4018 7.67361 19.0873 7.54167C18.7729 7.40972 18.4311 7.34028 18.062 7.33333C17.6997 7.33333 17.3613 7.40278 17.0469 7.54167C16.7324 7.68056 16.4522 7.87153 16.2061 8.11458C15.96 8.35764 15.772 8.63889 15.6421 8.95833C15.5123 9.27778 15.4439 9.625 15.4371 10H14.1246C14.1246 9.63194 14.0562 9.28819 13.9195 8.96875C13.7828 8.64931 13.5948 8.36458 13.3556 8.11458C13.1163 7.86458 12.8395 7.67361 12.525 7.54167C12.2106 7.40972 11.8688 7.34028 11.4997 7.33333C11.1647 7.33333 10.84 7.39583 10.5256 7.52083C10.2111 7.64583 9.9343 7.82986 9.69505 8.07292C9.8591 8.36458 9.98215 8.67361 10.0642 9C10.1462 9.32639 10.1872 9.65972 10.1872 10ZM18.062 3.33333C17.8774 3.33333 17.7065 3.36806 17.5493 3.4375C17.3921 3.50694 17.2554 3.60069 17.1392 3.71875C17.0229 3.83681 16.9272 3.97917 16.8521 4.14583C16.7769 4.3125 16.7427 4.48611 16.7495 4.66667C16.7495 4.85417 16.7837 5.02778 16.8521 5.1875C16.9204 5.34722 17.0127 5.48611 17.1289 5.60417C17.2451 5.72222 17.3852 5.81944 17.5493 5.89583C17.7134 5.97222 17.8843 6.00694 18.062 6C18.2465 6 18.4174 5.96528 18.5747 5.89583C18.7319 5.82639 18.8686 5.73264 18.9848 5.61458C19.101 5.49653 19.1967 5.35417 19.2719 5.1875C19.3471 5.02083 19.3813 4.84722 19.3744 4.66667C19.3744 4.47917 19.3403 4.30556 19.2719 4.14583C19.2035 3.98611 19.1113 3.84722 18.9951 3.72917C18.8788 3.61111 18.7387 3.51389 18.5747 3.4375C18.4106 3.36111 18.2397 3.32639 18.062 3.33333ZM11.4997 3.33333C11.3151 3.33333 11.1442 3.36806 10.987 3.4375C10.8298 3.50694 10.6931 3.60069 10.5769 3.71875C10.4606 3.83681 10.3649 3.97917 10.2898 4.14583C10.2146 4.3125 10.1804 4.48611 10.1872 4.66667C10.1872 4.85417 10.2214 5.02778 10.2898 5.1875C10.3581 5.34722 10.4504 5.48611 10.5666 5.60417C10.6828 5.72222 10.8229 5.81944 10.987 5.89583C11.1511 5.97222 11.322 6.00694 11.4997 6C11.6842 6 11.8551 5.96528 12.0124 5.89583C12.1696 5.82639 12.3063 5.73264 12.4225 5.61458C12.5387 5.49653 12.6344 5.35417 12.7096 5.1875C12.7848 5.02083 12.819 4.84722 12.8121 4.66667C12.8121 4.47917 12.778 4.30556 12.7096 4.14583C12.6412 3.98611 12.549 3.84722 12.4328 3.72917C12.3165 3.61111 12.1764 3.51389 12.0124 3.4375C11.8483 3.36111 11.6774 3.32639 11.4997 3.33333ZM6.24984 12.6667C6.61213 12.6667 6.9505 12.5972 7.26495 12.4583C7.57939 12.3194 7.85965 12.1285 8.10574 11.8854C8.35183 11.6424 8.53981 11.3611 8.66969 11.0417C8.79957 10.7222 8.86792 10.375 8.87476 10C8.87476 9.63194 8.8064 9.28819 8.66969 8.96875C8.53297 8.64931 8.34499 8.36458 8.10574 8.11458C7.86649 7.86458 7.58964 7.67361 7.2752 7.54167C6.96076 7.40972 6.61897 7.34028 6.24984 7.33333C5.88755 7.33333 5.54918 7.40278 5.23473 7.54167C4.92029 7.68056 4.64003 7.87153 4.39394 8.11458C4.14785 8.35764 3.95987 8.63889 3.82999 8.95833C3.70011 9.27778 3.63176 9.625 3.62492 10C3.62492 10.3681 3.69328 10.7118 3.82999 11.0313C3.96671 11.3507 4.15469 11.6354 4.39394 11.8854C4.63319 12.1354 4.91004 12.3264 5.22448 12.4583C5.53892 12.5903 5.88071 12.6597 6.24984 12.6667Z" fill="black"/>
</svg>
